<svg width="2210" height="2575" viewBox="0 0 2210 2575" fill="none" xmlns="http://www.w3.org/2000/svg">
<g clip-path="url(#clip0)">
<g clip-path="url(#clip1)">
<path d="M1417.67 2294.77C1414.63 2297.04 1413.5 2299.92 1411.76 2302.39C1406.33 2310.09 1400.21 2311.91 1391.62 2307.47C1387.85 2305.52 1385.53 2305.18 1381.74 2307.84C1373 2314.03 1366.62 2313.3 1359.53 2305.41C1356.94 2302.53 1355.01 2301.94 1351.88 2303.64C1350.96 2304.1 1349.99 2304.45 1348.99 2304.66C1337.7 2307.36 1332.91 2304.54 1328.96 2293.48C1327.25 2288.72 1327.78 2283.32 1324.55 2278.06C1319.06 2280.96 1315.61 2287.2 1308.75 2287.73C1301.89 2288.26 1296.98 2285.6 1292.67 2279.66C1284.82 2289.04 1274.98 2289.88 1264.15 2290.09C1242.81 2290.49 1221.6 2292.48 1200.39 2294.81C1194.84 2295.42 1193.81 2297.47 1194.4 2302.54C1196.43 2320.03 1199 2337.56 1198.06 2355.17C1196.71 2380.18 1198.25 2405.27 1195.16 2430.23C1191.31 2461.19 1182.65 2491.35 1169.5 2519.64C1159.86 2540.52 1143.91 2555.56 1124.48 2566.37C1107.21 2576 1088.04 2576.53 1068.39 2573.18C1042.47 2568.73 1022.81 2555.25 1007.04 2535.01C1005.17 2532.61 1003.44 2530.07 1001.39 2527.83C989.544 2514.86 981.294 2499.84 975.544 2483.37C971.053 2470.58 965.333 2458.32 959.715 2446C946.507 2417.13 940.411 2386.24 935.046 2355.2C933.014 2343.49 932.882 2331.6 932.069 2319.78C931.754 2315.14 930.22 2313.07 925.242 2313.69C916.901 2314.7 908.305 2313.17 900.797 2315.83V2343.18C900.797 2346.46 901.254 2349.28 905.186 2350.03C910.896 2351.2 912.4 2355.52 912.827 2360.6C913.284 2365.99 914.005 2371.37 914.218 2376.77C914.544 2384.98 912.186 2387.59 903.957 2388.69C900.604 2389.13 897.18 2388.97 893.797 2389.37C886.685 2390.22 885.364 2391.92 885.608 2398.96C885.771 2403.69 886.096 2408.45 885.852 2413.18C885.293 2423.68 881.229 2428.34 870.795 2428.2C865.187 2428.12 863.815 2430.1 862.992 2434.69C862.326 2437.66 861.362 2440.56 860.117 2443.34C855.159 2455.71 843.617 2459.59 832.34 2452.23C828.855 2449.93 827.331 2450.97 824.628 2452.95C815.911 2459.32 812.436 2459.53 803.739 2453.13C800.295 2450.6 798.893 2451.66 796.221 2453.83C787.88 2460.61 780.229 2460.17 773.117 2452.38C770.781 2449.83 769.5 2448.38 765.762 2450.24C758.518 2453.87 752.554 2450.48 747.819 2445.04C743.085 2439.61 740.626 2432.85 739.813 2425.62C738.868 2417.21 737.781 2408.8 738.37 2400.31C738.746 2395.3 736.796 2393.31 731.604 2392.63C721.444 2391.28 719.971 2389.22 719.412 2378.77C719.32 2377.09 719.331 2375.39 719.331 2373.69C719.331 2359.38 720.58 2357.77 734.571 2354.52C748.561 2351.27 748.408 2351.24 753.57 2337.64C759.838 2321.14 763.994 2304.04 768.291 2286.98C769.518 2281.71 769.722 2276.26 768.891 2270.92C761.261 2212.84 749.445 2155.48 739.579 2097.79C739.318 2096.83 738.957 2095.91 738.502 2095.03C735.211 2093.77 732.742 2096.55 729.663 2096.48C725.231 2096.38 721.004 2094.59 717.857 2091.47C714.71 2088.35 712.884 2084.13 712.757 2079.7C712.523 2068.7 708.175 2058.62 706.793 2047.9C706.295 2044.09 704.761 2040.01 700.362 2037.2C698.025 2039.24 697.914 2042.28 696.928 2044.95C692.864 2055.72 680.957 2057.69 673.743 2048.58C668.551 2042.04 666.926 2034.19 670.035 2026.54C674.17 2016.38 672.361 2006.86 670.289 1996.76C667.586 1983.55 660.891 1971.36 661.622 1957.3C661.937 1951.27 656.949 1948.15 650.934 1948.88C643.517 1949.8 639.413 1947.67 636.446 1940.88C633.317 1933.77 633.632 1926.34 636.04 1919.07C637.848 1913.61 640.175 1908.35 640.337 1902.45C640.377 1900.91 640.755 1899.4 641.443 1898.02C642.131 1896.64 643.113 1895.44 644.32 1894.48C649.4 1890.33 650.517 1885.34 648.871 1879.1C648.179 1876.45 648.321 1873.66 649.278 1871.09C653.576 1861.07 655.059 1850.28 658.32 1839.98C660.84 1832 666.712 1826.9 673.235 1822.61C679.483 1818.55 682.023 1813.47 682.216 1805.85C682.521 1793.66 685.173 1782.05 692.376 1771.31C701.256 1758.1 705.686 1742.55 711.162 1727.62C715.927 1714.63 721.037 1701.9 720.57 1687.47C720.286 1678.81 722.47 1670.02 724.004 1661.39C725.02 1655.52 723.273 1651.11 717.99 1648.95C709.516 1645.5 702.811 1639.01 693.961 1636.13C685.112 1633.26 683.263 1629.7 683.1 1620.17C682.613 1592.84 687.581 1566.32 695.16 1540.23C697.792 1531.09 699.478 1521.78 702.16 1512.71C709.595 1487.34 721.019 1463.31 736.003 1441.53C748.733 1423.02 756.394 1401.91 764.349 1380.99C781.489 1335.88 790.572 1288.72 798.761 1241.35C799.218 1238.69 799.564 1235.99 800.234 1233.38C803.14 1221.97 808.555 1217.4 820.046 1216.49C827.453 1215.91 827.453 1215.91 827.646 1208.52C827.646 1207.84 827.646 1207.16 827.646 1206.49C828.895 1192.73 824.882 1181.56 815.454 1170.64C800.823 1153.64 784.893 1138.06 768.992 1122.4C762.968 1116.45 756.486 1110.97 750.593 1104.91C724.116 1077.74 696.674 1051.59 668.633 1026.05C650.284 1009.36 635.43 989.479 618.727 971.273C607.978 959.549 597.706 947.377 587.434 935.257C561.953 905.316 540.699 872.734 530.173 834.514C518.438 791.691 526.312 752.668 557.442 719.71C569.807 706.624 584.082 695.875 598.946 685.644C624.112 668.322 650.599 653.347 677.624 639.286C697.72 628.821 717.898 618.489 739.894 612.261C754.2 608.197 768.2 603.209 782.779 599.937C803.394 595.315 821.814 584.861 840.945 576.357C859.832 567.965 879.096 560.731 899.324 556.231C906.07 554.727 912.867 554.534 919.4 556.657C922.692 557.724 924.998 557.551 927.731 555.469C953.131 536.074 976.753 514.921 994.787 488.151C1002.62 476.672 1008.78 464.134 1013.07 450.916C1023.5 418.354 1034.32 385.955 1048.41 354.754C1051.61 347.643 1055.06 340.683 1058.47 333.693C1061.19 328.106 1065.35 323.666 1070.11 319.775C1077.84 313.466 1083.38 313.212 1090.92 319.511C1093.86 321.969 1095.76 322.884 1099.64 320.943C1110.69 315.437 1118.94 317.895 1125.67 328.319C1132.09 338.357 1136.06 349.766 1137.25 361.622C1139.57 382.876 1144.2 403.663 1149.09 424.379C1155.45 450.697 1163.19 476.664 1172.27 502.171C1178.37 519.625 1187.51 535.312 1198.48 550.043C1201.11 553.559 1203.39 555.834 1208.45 554.432C1210.93 553.786 1213.52 553.714 1216.04 554.221C1218.55 554.728 1220.91 555.801 1222.95 557.358C1224.05 558.141 1225.21 559.146 1226.45 559.329C1249.93 562.723 1268.42 577.617 1289.54 586.476C1317.88 598.353 1345.26 612.312 1374.49 622.39C1399.81 631.08 1424.2 642.246 1447.32 655.724C1457.22 661.608 1467.48 666.864 1478.03 671.461C1494.9 678.685 1510.61 687.991 1526.11 697.673C1529.64 699.691 1532.83 702.241 1535.58 705.232C1555.81 729.341 1576.02 753.358 1591.22 781.277C1601.1 799.443 1602.51 818.553 1598.59 837.399C1595.65 850.843 1591.14 863.894 1585.14 876.28C1578.17 890.961 1567.58 903.518 1558.72 917.081C1557.79 918.494 1556.61 919.743 1555.68 921.145C1535.11 954.327 1505.44 978.527 1475.11 1001.88C1466.07 1008.84 1455.5 1013.88 1445.44 1019.45C1402.77 1043.05 1361.9 1069.64 1321.17 1096.42C1309.29 1104.23 1297.18 1111.66 1285.03 1119.04C1262.46 1132.73 1240.03 1146.66 1218.04 1161.27C1208.59 1167.55 1199.09 1174.3 1193.66 1185.13C1191.09 1189.93 1189.74 1195.28 1189.73 1200.72C1190.08 1217.59 1191.01 1234.47 1191.6 1251.34C1191.7 1253.8 1193.11 1254.58 1194.98 1255.71C1206 1262.4 1207.86 1267.2 1205.2 1279.98C1195.68 1325.55 1195.29 1371.35 1203 1417.14C1205.75 1434.55 1211.55 1451.33 1220.11 1466.73C1227.71 1479.94 1234.12 1493.79 1239.26 1508.13C1240.28 1510.97 1241.41 1514 1243.33 1516.26C1250.76 1525.15 1255.61 1535.4 1260.85 1545.62C1265.08 1554.07 1268.65 1562.84 1271.54 1571.83C1273.58 1577.79 1273.88 1583.53 1268.25 1588.48C1264.28 1591.98 1264.72 1596.11 1267.52 1601.08C1276.78 1617.27 1284.16 1634.45 1289.55 1652.31C1293.61 1666.1 1300.55 1678.21 1309.45 1689.64C1323.67 1707.88 1338.24 1725.45 1357.07 1739.23C1364.18 1744.45 1368.11 1752.87 1373.95 1759.44C1375.98 1761.7 1377.59 1764.8 1380.12 1766.04C1389.65 1770.74 1395.26 1779.4 1402.25 1786.68C1404.65 1789.17 1406.64 1791.59 1405.02 1795.62C1403.27 1800 1405.97 1804.22 1406.69 1808.47C1407.86 1815.33 1407.06 1821.43 1401.86 1826.21C1397.49 1830.27 1397.89 1833.94 1400.75 1838.66C1404.57 1844.98 1408.02 1851.35 1409.03 1859.13C1409.81 1865.22 1415.27 1869.43 1419.29 1873.96C1433.94 1890.46 1439.98 1910.06 1440.71 1931.71C1440.92 1937.98 1439.51 1943.16 1433.07 1945.66C1431.79 1946.15 1430.15 1946.6 1429.96 1947.99C1428.81 1956.5 1422.31 1964.05 1425.73 1973.39C1427.58 1978.47 1428.62 1983.81 1430.32 1988.94C1432.48 1995.36 1433.8 2002.04 1434.24 2008.81C1434.58 2014.01 1432.74 2018.28 1427.93 2020.53C1425.79 2021.59 1423.39 2022.03 1421.01 2021.81C1418.63 2021.58 1416.35 2020.7 1414.44 2019.26C1413.27 2018.57 1412.27 2017.63 1411.51 2016.51C1408.69 2011.43 1405.14 2010.99 1399.75 2012.92C1394.04 2014.95 1391.42 2018.37 1391.42 2024.1C1391.42 2029.29 1391.11 2034.26 1386.85 2038.06C1385.1 2039.61 1385.26 2041.68 1385.28 2043.71C1385.39 2053.47 1385.69 2062.94 1388.47 2072.7C1391.88 2084.59 1392.22 2097.38 1393.66 2109.8C1397.18 2140.28 1405.57 2169.41 1417.59 2197.6C1419.95 2203.14 1422.67 2205.73 1428.84 2204.72C1433.53 2204.04 1438.27 2203.7 1443.01 2203.7C1454.67 2203.31 1460.53 2208.78 1461.11 2220.56C1461.43 2227.32 1461.56 2234.09 1461.65 2240.87C1461.78 2251.03 1458.3 2254.72 1447.9 2255.78C1440.33 2256.54 1440.29 2256.54 1440.4 2263.67C1440.47 2267.74 1440.73 2271.8 1440.89 2275.86C1441.08 2278.23 1441.14 2280.6 1441.08 2282.98C1440.16 2297.83 1430.59 2302.89 1417.67 2294.77ZM1231.57 1567.71C1221.7 1550.43 1215.5 1533.58 1205.9 1518.4C1194.66 1500.63 1185.7 1481.66 1176.71 1462.71C1175.43 1459.95 1174.49 1457.04 1173.92 1454.05C1168.84 1428.13 1164.4 1402.12 1164.51 1375.58C1164.51 1364.75 1165.12 1353.85 1164.13 1343.07C1162.61 1326.42 1162.29 1309.97 1166.16 1293.62C1167.27 1288.98 1166.16 1287.1 1160.9 1286.63C1139.99 1284.76 1118.99 1285.42 1098.08 1283.44C1070.47 1280.82 1042.65 1280.06 1015.34 1274.78C997.743 1271.33 979.908 1269.23 961.99 1268.49C935.95 1267.48 909.911 1266.25 883.972 1263.57C871.516 1262.28 859.172 1260.41 847.325 1255.97C842.428 1254.13 837.399 1252.12 831.405 1252.67C830.846 1272.24 825.309 1290.48 822.606 1309.19C817.801 1342.57 805.873 1373.05 787.362 1401.36C773.483 1422.58 762.094 1445.36 747.829 1466.38C744.639 1471.1 742.678 1476.64 740.148 1481.81C731.35 1499.8 725.427 1518.87 718.914 1537.73C713.56 1553.23 711.802 1569.36 709.404 1585.38C708.957 1588.37 709.404 1591.48 709.293 1594.53C709.191 1597.81 710.583 1599.61 713.946 1599.79C719.026 1600.02 724.106 1600.28 729.186 1600.5C744.04 1601.14 758.782 1601.62 773.432 1605.4C796.099 1611.25 818.329 1618.08 839.827 1627.35C846.36 1630.17 846.868 1630.12 848.849 1623.29C855.524 1600.16 869.169 1580.62 880.965 1560.17C893.157 1538.99 912.268 1526.79 934.284 1518.6C948.762 1513.21 964.063 1511.12 979.161 1515.56C999.582 1521.6 1017.64 1532.01 1032.38 1547.72C1041.63 1557.6 1051 1567.38 1060.37 1577.18C1062.4 1579.35 1064.38 1581.81 1067.81 1582.04C1084.2 1583.15 1098.29 1590.7 1112.07 1598.61C1115.34 1600.49 1117.41 1600.32 1120.2 1598.52C1133.73 1589.87 1148.53 1584.15 1164.01 1580.23C1185.58 1574.58 1206.95 1567.98 1231.57 1567.71ZM1032.08 658.599C1032.17 659.625 1032.33 660.643 1032.55 661.647C1036.62 675.332 1034.86 678.919 1022.39 685.949C1007.15 694.514 991.19 702.042 979.719 716.255C971.398 726.547 960.893 734.766 949.666 741.797C930.291 753.927 913.497 769.045 897.851 785.534C891.877 791.57 887.017 798.614 883.495 806.341C881.534 810.862 880.752 815.485 883.596 819.925C893.756 835.916 901.275 853.543 912.857 868.589C932.537 894.12 954.594 917.417 979.973 937.482C986.615 942.739 994.328 946.477 1002.57 948.434C1030.35 955.241 1058.09 958.665 1086.9 954.53C1114.65 950.537 1140.01 941.911 1162.81 925.595C1168.57 921.47 1174.78 917.965 1180.76 914.145C1211 894.883 1241.23 875.589 1271.44 856.266C1273.7 854.776 1275.87 853.147 1277.92 851.389C1284.8 845.72 1290 838.649 1294.49 831.07C1301.61 818.878 1299.48 805.599 1293.37 795.287C1286.38 783.656 1277.29 773.43 1266.55 765.134C1222.43 730.824 1176 699.969 1128.47 670.71C1122.77 667.194 1118.62 662.978 1118.31 656.598C1118.04 649.801 1114.51 649.537 1109.22 649.263C1099.42 648.755 1089.52 647.749 1081.67 640.749C1078.56 637.975 1077.06 639.967 1075.26 642.263C1068.03 651.508 1057.88 654.718 1046.75 655.47C1041.72 655.805 1036.75 656.11 1032.08 658.599ZM1116.41 1779.4C1115.69 1771.83 1116.23 1762.98 1114.27 1754.32C1107.78 1725.6 1101.29 1696.85 1089.63 1669.69C1083.53 1655.46 1078.92 1640.6 1071.08 1626.95C1055.47 1599.79 1033.17 1578.45 1011.41 1556.77C999.084 1544.5 983.154 1536.45 965.516 1535.06C941.975 1533.2 921.828 1543.41 907.025 1560.46C892.913 1576.72 882.641 1596.11 873.802 1616.02C866.01 1633.66 863.642 1652.37 862.718 1671.42C860.979 1705.22 861.043 1739.09 862.911 1772.88C864.201 1795.01 870.693 1816.13 873.985 1837.84C874.676 1842.37 877.775 1845.7 880.142 1849.34C880.483 1849.93 880.939 1850.45 881.483 1850.87C882.027 1851.28 882.647 1851.59 883.309 1851.76C883.971 1851.93 884.66 1851.97 885.338 1851.88C886.015 1851.78 886.666 1851.55 887.254 1851.2C897.414 1846.19 905.461 1848.33 911.323 1858.16C911.535 1858.42 911.785 1858.65 912.065 1858.84C919.085 1865.26 920.904 1865.21 927.721 1858.4C937.759 1848.37 951.089 1848.24 960.863 1858.21C967.853 1865.32 969.285 1865.41 976.885 1859.62C984.799 1853.59 991.007 1853.53 998.983 1859.62C1001.94 1861.88 1004.55 1864.56 1007.4 1866.97C1013.41 1872.05 1014.09 1871.93 1017.91 1865.45C1019.63 1862.54 1021.18 1859.5 1023.16 1856.78C1029.67 1847.88 1035.61 1846.83 1044.79 1852.71C1052.82 1857.87 1052.92 1857.93 1059.02 1850.38C1062.89 1845.59 1068.25 1843.6 1073.86 1842.38C1079.06 1841.25 1081.49 1845.43 1084.49 1848.72C1087.49 1852.01 1098.37 1854.08 1100.51 1851.43C1105.26 1845.55 1112.51 1840.52 1111.83 1831.9C1111.2 1823.9 1112.84 1816.31 1114.52 1808.81C1116.6 1799.43 1116.77 1790.07 1116.38 1779.4H1116.41ZM865.461 2407.22C868.59 2402.28 868.631 2397.6 867.655 2393C865.756 2384.08 864.282 2374.93 861.163 2366.43C854.051 2347.12 846.939 2327.82 837.582 2309.53C836.268 2306.79 835.574 2303.78 835.55 2300.74C835.388 2297.02 835.255 2293.29 834.819 2289.56C830.521 2252.91 827.981 2216.12 825.349 2179.34C822.82 2143.89 821.915 2108.35 818.847 2072.94C815.251 2031.45 812.873 1989.91 813.015 1948.24C813.198 1892.39 813.232 1836.54 813.117 1780.68C813.117 1758.69 813.493 1736.74 815.667 1714.81C817.699 1694.27 818.624 1673.63 821.976 1653.24C822.566 1649.69 822.992 1646.89 818.725 1644.95C800.996 1636.82 782.647 1631.43 762.998 1631.08C759.95 1631.02 758.182 1631.66 757.115 1635.01C753.702 1645.64 750.217 1656.18 748.835 1667.35C746.569 1685.8 743.908 1704.21 741.418 1722.63C739.742 1735.03 736.409 1747.24 736.338 1759.8C736.003 1799.06 735.485 1838.33 735.952 1877.59C736.348 1910.1 739 1942.53 742.688 1974.79C749.8 2036.31 759.96 2097.39 771.807 2158.15C780.138 2201.02 785.37 2244.36 793.142 2287.28C793.884 2291.35 794.28 2295.31 792.391 2299.19C784.943 2314.43 782.637 2331.47 776.358 2347.16C774.326 2352.39 775.342 2353.56 781.306 2353.89C789.068 2354.34 796.963 2355.15 804.613 2354.26C811.816 2353.42 819.396 2355.57 826.355 2351.21C829.85 2349.01 832.756 2352.11 834.27 2355.42C836.647 2360.65 838.852 2365.97 840.935 2371.32C846.218 2385.15 856.388 2395.6 865.41 2407.22H865.461ZM1397.63 2206.55C1390.47 2186.77 1383.68 2168.68 1379.5 2149.95C1371.46 2113.86 1367.88 2077.09 1365.96 2040.22C1364.94 2020.92 1363.69 2001.7 1360.5 1982.66C1354.85 1948.96 1349.11 1915.27 1342.92 1881.66C1337.64 1852.34 1330 1823.49 1320.07 1795.39C1311.2 1770.65 1300.56 1746.38 1290.4 1722.03C1272.79 1679.83 1249.26 1640.46 1231.57 1598.31C1229.83 1594.13 1226.87 1593.58 1223.45 1594.49C1205.8 1599.13 1187.21 1599.31 1170.04 1606.28C1158.95 1610.79 1157.98 1609.76 1166.04 1620.16C1183.69 1642.91 1194.93 1669.02 1205.46 1695.41C1210.54 1708.29 1215.29 1721.33 1220.41 1734.23C1229.27 1756.58 1241.04 1777.51 1249.87 1799.95C1272.41 1857.17 1288.15 1916.23 1300.67 1976.25C1305.5 1999.41 1308.33 2022.98 1312.29 2046.35C1318.08 2080.35 1326.58 2113.99 1327.63 2148.64C1328.3 2170.74 1330.77 2193.22 1321.08 2214.38C1320.98 2214.71 1320.9 2215.05 1320.85 2215.39C1317.05 2228.69 1315.6 2242.68 1309.14 2255.22C1308.78 2256.17 1308.57 2257.16 1308.49 2258.18C1308.18 2259.33 1308.29 2260.56 1308.8 2261.65C1309.31 2262.74 1310.18 2263.61 1311.27 2264.11C1313.87 2265.47 1316.61 2265.87 1318.7 2263.48C1320.78 2261.09 1322.68 2258.02 1324.64 2255.27C1332.95 2243.58 1338 2230.2 1343.74 2217.24C1347.09 2209.66 1351.87 2206.35 1360 2206.52C1372.11 2206.75 1384.27 2206.55 1397.58 2206.55H1397.63ZM1093.24 2028.26C1078.95 2032.19 1075.79 2041.56 1077.23 2054.04C1077.75 2058.43 1078.55 2061.58 1082.66 2063.91C1090.31 2068.25 1097.66 2073.12 1105.12 2077.76C1114.45 2083.55 1122.64 2090.67 1128.41 2100.04C1138.85 2117.04 1149.18 2134.17 1157.6 2152.28C1163.59 2165.15 1168.88 2178.34 1172.22 2192.24C1178.06 2216.56 1185.16 2240.59 1188.61 2265.46C1189.62 2272.73 1189.97 2272.78 1197.75 2272.66C1220.1 2272.35 1242.25 2268.73 1264.63 2269.41C1269.52 2269.57 1270.9 2267.04 1271.42 2262.67C1271.94 2258.3 1270.47 2257.02 1266.2 2256.13C1256.04 2254.03 1253.55 2250.04 1254.54 2239.53C1254.98 2234.82 1255.55 2230.12 1255.97 2225.4C1256.86 2214.79 1259.84 2211.06 1270.52 2209.21C1279.15 2207.72 1287.92 2206.89 1296.67 2206.16C1300.17 2205.85 1302.4 2204.89 1303.12 2201.2C1303.84 2197.51 1305.15 2194.02 1305.66 2190.35C1307.83 2172.18 1307.92 2153.83 1305.92 2135.64C1302.28 2100.63 1293.9 2066.35 1288.65 2031.59C1287.84 2026.23 1284.17 2026.4 1280.71 2025.69C1276.8 2024.89 1276.64 2028.14 1275.74 2030.64C1274.5 2034.49 1273.87 2038.52 1273.89 2042.57C1273.6 2052.45 1266 2057.48 1257.2 2053.35C1247.9 2048.98 1239.48 2043.31 1236.01 2032.71C1235.32 2030.62 1235.27 2027.92 1231.6 2027.22C1225.78 2033.4 1218.89 2037.95 1209.5 2033.93C1208.01 2033.29 1206.92 2034.32 1206.19 2035.52C1201.46 2043.38 1193.49 2047.54 1186.39 2052.61C1179.29 2057.68 1172.52 2057.31 1168.1 2049.86C1163.28 2041.74 1154.68 2038.69 1148.67 2032.41C1147.42 2031.11 1145.62 2030.29 1144.14 2031.53C1137.74 2036.94 1128.77 2035.92 1122.01 2041C1116 2045.51 1109.28 2044.19 1103.45 2038.9C1099.66 2035.49 1096.38 2031.61 1093.19 2028.26H1093.24ZM951.16 2035.47C950.835 2042.41 951.485 2048.67 947.939 2054.04C946.649 2055.99 947.553 2057.89 948.569 2059.74C949.768 2061.78 950.821 2063.9 951.719 2066.09C953.954 2071.99 953.436 2077.77 948.488 2081.89C943.54 2086 937.576 2089.28 930.779 2086.89C924.175 2084.57 923.667 2078.52 923.545 2072.58C923.545 2070.21 923.545 2067.84 923.423 2065.47C923.401 2061.06 922.511 2056.69 920.802 2052.63C917.673 2045.78 911.76 2044.85 905.369 2048.43C897.099 2053.06 891.663 2058.59 892.933 2068.75C892.882 2069.43 892.706 2070.09 892.415 2070.7C890.769 2076.17 888.148 2080.86 881.869 2081.68C875.59 2082.51 872.014 2078.43 869.342 2073.3C867.31 2069.41 865.115 2065.59 862.85 2061.83C861.549 2059.69 859.802 2058.33 856.937 2059.23C851.369 2060.99 845.669 2059.87 839.665 2059.23C838.09 2068.52 840.407 2077.12 840.955 2085.79C843.78 2131.04 845.812 2176.34 849.256 2221.57C851.877 2255.96 855.088 2290.16 865.644 2323.24C867.899 2330.35 870.043 2337.46 872.349 2344.52C872.878 2346.11 873.863 2347.69 875.956 2347.35C878.049 2347 879.675 2345.8 879.532 2343.28C879.421 2341.25 879.207 2339.22 879.146 2337.19C878.872 2328.74 878.323 2320.28 878.445 2311.79C878.679 2295.21 883.525 2290.29 900.157 2289C901.844 2288.87 903.54 2288.92 905.237 2288.89C910.317 2288.79 915.397 2288.89 920.477 2288.55C927.955 2288.11 928.432 2287.61 928.249 2280.16C927.467 2247.56 930.921 2215.22 935.3 2183.07C938.826 2157.14 945.541 2131.93 964.276 2111.95C965.845 2110.17 967.208 2108.23 968.34 2106.15C981.02 2083.94 1000.73 2070.02 1023.64 2060.43C1031.49 2057.14 1031.32 2057.32 1030.29 2048.58C1029.92 2045.53 1029.27 2042.58 1028.72 2039.58C1028.3 2037.32 1028.94 2034.91 1027.19 2032.84C1019.57 2023.83 1007.36 2025.32 1001.07 2035.52C997.388 2041.47 997.438 2047.56 997.642 2054.01C997.794 2059.23 995.325 2063.23 990.296 2065.02C985.663 2066.68 981.64 2065.09 978.307 2061.67C974.243 2057.47 971.043 2052.79 970.301 2046.75C969.966 2044.09 969.793 2041.11 966.552 2040.17C961.797 2038.84 957.571 2035.6 951.16 2035.47ZM1136.07 2349C1136.08 2339.85 1135.46 2330.71 1134.22 2321.64C1133.51 2315.64 1136.25 2308.23 1132.45 2303.88C1128.12 2298.91 1120.26 2302.3 1114.01 2301.67C1106.2 2300.89 1106.1 2301.34 1105.75 2309.07C1105.69 2310.42 1105.75 2311.78 1105.7 2313.13C1104.69 2328.37 1097.42 2340.07 1084.92 2348.49C1078.36 2352.9 1071.22 2353.95 1063.72 2350.38C1061.33 2349.12 1058.72 2348.3 1056.04 2347.96C1042.3 2346.77 1036.14 2337.8 1032.9 2325.83C1031.79 2321.57 1030.94 2317.25 1030.34 2312.9C1029.79 2309.12 1027.73 2307.9 1024.14 2307.82C1017.03 2307.61 1009.91 2308.44 1002.88 2309.21C995.01 2310.07 994.756 2310.1 995.356 2317.69C998.292 2354.19 1003.3 2390.35 1014.01 2425.51C1020.37 2446.37 1030.27 2465.61 1041.95 2483.93C1047.14 2492.06 1053.82 2496.95 1063.71 2498.81C1073.61 2500.67 1083.17 2500.46 1092.9 2501.19C1100.65 2501.77 1105.83 2498.91 1109.66 2492.41C1112.21 2488.41 1114.32 2484.16 1115.96 2479.72C1119.35 2469.44 1122.92 2459.2 1125.76 2448.77C1134.68 2416.08 1133.56 2382.34 1136.12 2349H1136.07ZM888.646 1183.15L855.636 1185.18C849.114 1185.6 848.91 1185.62 849.54 1192.44C850.648 1204.57 852.04 1216.69 849.652 1228.81C848.951 1232.36 850.668 1233.89 853.787 1234.33C860.137 1235.29 866.467 1236.57 872.847 1237.04C908.58 1239.64 944.271 1243.03 980.156 1242.92C984.55 1243.01 988.934 1243.37 993.283 1244C1012.4 1246.35 1031.54 1248.59 1050.18 1253.78C1054.05 1254.86 1058.17 1255.03 1062.19 1255.6C1080.63 1258.17 1099.41 1255.24 1117.77 1259.07C1129.07 1261.42 1140.58 1261.67 1152.01 1262.73C1155.98 1263.11 1157.86 1262.59 1158.87 1257.99C1161.84 1244.4 1162.76 1230.62 1164.03 1216.83C1164.37 1213.22 1162.71 1212.12 1159.86 1211.18C1151.21 1208.35 1142.69 1205.33 1133.44 1204.71C1121.98 1203.95 1110.57 1202.4 1099.19 1200.79C1064.04 1195.84 1028.89 1190.74 993.405 1188.82C973.481 1187.73 953.547 1186.92 933.624 1185.77C920.07 1185.07 906.67 1182.93 888.646 1183.15ZM1077.77 352.723C1066.06 375.338 1054.57 397.669 1048.07 422.428C1041.29 448.264 1031.81 473.226 1016.36 495.577C1004.83 512.285 991.713 527.831 977.179 541.997C962.214 556.607 948.823 572.73 933.228 586.699C933.85 587.731 934.529 588.728 935.26 589.686C953.791 611.072 977.261 626.8 998.627 644.945C1001.89 647.708 1004.32 647.861 1006.92 644.223C1012.27 636.705 1019.67 632.316 1028.66 630.477C1043.04 627.531 1051.78 618.692 1055.01 604.57C1057.34 594.411 1059.2 584.058 1061.11 573.766C1062.41 566.786 1064.16 559.797 1064.47 552.766C1066.03 519.666 1068.54 486.637 1071.37 453.628C1073.93 424.338 1074.27 394.865 1078.78 365.737C1079.41 361.511 1079.59 357.142 1077.77 352.723ZM1110.08 352.723C1108.17 358.402 1103.89 360.434 1104.23 365.097C1104.88 374.332 1102.26 383.232 1101.67 392.315C1100.06 416.952 1098.98 441.619 1097.32 466.247C1095.71 490.203 1094.92 514.312 1091.4 537.994C1088.42 559.068 1086.8 580.311 1086.55 601.593C1086.25 617.707 1095.25 627.755 1111.06 628.364C1114.46 628.428 1117.86 628.193 1121.22 627.663C1126.78 626.881 1132.2 627.389 1136.87 630.437C1143.39 634.694 1144.31 634.633 1151.45 627.755C1163.4 616.274 1174.6 604.022 1187.2 593.212C1192.77 588.416 1192.73 588.132 1188.76 581.518C1183.68 573.116 1177.9 565.13 1173.32 556.495C1161.57 534.387 1151.85 511.366 1143.02 487.917C1131.8 458.549 1123.89 428.024 1119.42 396.907C1117.42 382.927 1116.94 368.541 1110.08 352.723ZM1037.71 2118.87C1031.18 2120.82 1027.93 2124.96 1023.65 2127.61C1011.04 2135.28 1004.44 2146.83 1000.14 2160.64C987.807 2200.4 989.92 2240.91 993.029 2281.45C993.324 2285.19 995.366 2285.98 998.475 2285.43C1006.81 2283.97 1015.26 2283.24 1023.72 2283.26C1028.25 2283.26 1029.63 2281.03 1029.54 2276.99C1029.49 2274.62 1029.54 2272.25 1029.75 2269.88C1030.45 2260.62 1033.34 2252.61 1042.66 2248.66C1046.19 2247.15 1046.43 2244.33 1046.23 2241.12C1044 2207.02 1041.78 2172.92 1039.58 2138.82C1039.21 2132.5 1038.42 2126.18 1037.71 2118.87ZM1079.32 2126.44C1078.62 2128.39 1078.21 2129 1078.2 2129.62C1077.28 2166.19 1079.84 2202.56 1082.02 2238.98C1082.18 2241.71 1082.43 2244.43 1084.66 2246.39C1094.39 2254.93 1099.52 2266.37 1104.26 2277.89C1105.97 2282.07 1108.46 2282.69 1112.12 2281.44C1117.23 2279.63 1122.6 2278.67 1128.01 2278.61C1131.95 2278.61 1133.51 2276.69 1132.87 2272.83C1131.85 2266.83 1130.84 2260.84 1130.04 2254.81C1125.04 2216.55 1112.49 2180.65 1095.43 2146.27C1091.71 2138.84 1087.14 2131.74 1079.32 2126.44ZM782.099 2413.26C782.099 2420.65 781.916 2428.07 784.588 2435.13C785.299 2437.01 786.173 2439.09 788.449 2439.28C791.121 2439.52 791.497 2436.97 792.055 2435.22C795.164 2425.58 796.353 2415.58 796.881 2405.52C797.318 2397.25 796.414 2396.7 788.103 2395.68C783.48 2395.11 782.007 2397.06 782.089 2401.19C782.17 2405.33 782.099 2409.2 782.099 2413.26ZM843.627 2439.68C847.041 2436.55 847.071 2432.77 847.772 2429.2C849.804 2418.97 846.127 2410.1 841.433 2401.41C840.112 2398.97 839.157 2396.26 835.601 2397.34C832.045 2398.43 832.888 2401.63 833.254 2404.11C834.717 2414.1 836.068 2424.11 839.35 2433.73C840.061 2435.88 840.417 2438.33 843.627 2439.68ZM769.551 2398.02C768.809 2397.45 767.992 2396.97 767.123 2396.61C765.802 2396.4 764.468 2396.28 763.13 2396.25C755.622 2395.99 755.144 2396.09 754.697 2403.79C754.23 2411.84 754.464 2419.94 754.504 2428.02C754.504 2430.05 755.033 2431.98 758.375 2433.38C764.065 2422.04 766.137 2409.7 769.551 2398.02ZM819.558 2416.81C819.558 2412.06 819.558 2407.33 819.558 2402.59C819.558 2399.46 817.455 2398.68 814.773 2398.81C812.426 2398.91 809.551 2398.62 809.337 2401.85C808.606 2412.68 808.423 2423.5 812.274 2433.92C812.863 2435.5 813.818 2437.25 815.84 2436.75C817.567 2436.34 818.359 2434.59 818.746 2432.94C820.005 2427.62 819.538 2422.17 819.558 2416.77V2416.81ZM1349.54 2284.04C1352.36 2274.1 1355.42 2264.5 1355.75 2254.35C1355.83 2251.81 1356.55 2248.65 1352.5 2248.11C1348.84 2247.63 1345.69 2248.11 1344.29 2252.17C1343.64 2253.72 1343.2 2255.35 1343 2257.02C1342.45 2266.48 1343.49 2275.7 1349.54 2284V2284.04ZM1398.65 2288.47C1400.92 2277.67 1402.05 2266.66 1402.02 2255.63C1402.02 2250.67 1397.28 2251.71 1394.24 2251.45C1390.76 2251.15 1390.83 2253.89 1391.2 2256.36C1392.38 2265.37 1393.48 2274.39 1394.86 2283.36C1395.09 2285.05 1395.25 2287.28 1398.65 2288.43V2288.47ZM1372.78 2287.77C1375.89 2277.72 1378.58 2267.7 1378.32 2257.18C1378.36 2255.48 1378.27 2253.79 1378.06 2252.1C1377.48 2248.51 1374.53 2248.6 1371.85 2248.4C1368.68 2248.19 1367.68 2250.07 1367.98 2252.81C1369.27 2264.45 1368.84 2276.28 1372.8 2287.73L1372.78 2287.77ZM1424.22 2280.98C1426.74 2280.47 1426.89 2278.78 1426.93 2277.21C1427.05 2272.2 1427.1 2267.2 1427.11 2262.19C1427.11 2253.24 1427.04 2253.2 1416.8 2255.2C1419.16 2263.73 1420.4 2272.58 1424.22 2280.94V2280.98Z" fill="#00282E"/>
<path d="M949.412 1677.86C949.412 1676.51 949.412 1675.15 949.412 1673.79C950.093 1655.51 962.884 1646.84 979.963 1653.05C985.297 1654.99 987.949 1658.52 987.827 1663.55C987.705 1668.58 984.911 1671.91 979.415 1673.56C970.921 1676.09 970.383 1676.61 971.774 1684.99C973.928 1697.97 976.529 1710.89 978.795 1723.86C979.631 1728.18 980.13 1732.55 980.288 1736.95C980.38 1743.37 976.661 1747.71 971.145 1748.48C966.065 1749.19 961.716 1746.33 959.471 1740.78C959.087 1739.83 958.801 1738.85 958.617 1737.85C955.569 1720.22 952.521 1702.59 949.555 1684.94C949.169 1682.63 949.555 1680.21 949.555 1677.83L949.412 1677.86Z" fill="#00282E"/>
<path d="M960.741 1594.67C968.391 1593.65 974.385 1597.97 979.445 1603.67C984.688 1609.63 983.672 1618.68 976.773 1621.83C966.613 1626.53 955.772 1629.44 944.79 1623.44C934.01 1617.54 933.502 1606 943.834 1599.24C948.832 1595.94 954.76 1594.34 960.741 1594.67Z" fill="#00282E"/>
<path d="M921.493 1799.82C917.225 1799.77 911.82 1799.82 906.771 1797.54C900.919 1794.86 898.216 1789.96 899.659 1784.7C901.02 1779.62 905.023 1776.43 911.089 1776.94C919.511 1777.66 927.721 1778.04 936.092 1775.93C941.609 1774.51 946.252 1777.82 948.041 1782.8C949.859 1787.94 947.665 1793.55 942.3 1796.41C936.153 1799.62 929.367 1799.79 921.493 1799.82Z" fill="#00282E"/>
<path d="M1038.47 1795.46C1034.55 1795.28 1030.78 1795.46 1027.16 1794.85C1020.9 1793.76 1017.33 1789.26 1017.63 1783.67C1017.89 1778.44 1021.42 1774.53 1027.24 1773.56C1029.93 1773.24 1032.65 1773.12 1035.37 1773.21C1040.45 1773.12 1045.21 1773.09 1050 1770.38C1055.4 1767.33 1060.54 1768.81 1063.59 1772.85C1066.81 1777.13 1066.4 1783.09 1062.5 1787.78C1059.2 1791.72 1054.52 1794.23 1049.42 1794.8C1045.72 1795.28 1041.98 1795.26 1038.47 1795.46Z" fill="#00282E"/>
<path d="M905.908 1733.72C906.375 1731.4 906.598 1728.32 907.645 1725.54C908.399 1723.28 909.791 1721.28 911.654 1719.8C913.516 1718.31 915.769 1717.4 918.14 1717.16C923.22 1716.54 927.386 1718.76 930.129 1723.08C933.624 1728.58 936.083 1734.39 934.02 1741.18C931.907 1748.17 926.522 1752.47 920.111 1752.11C916.89 1751.94 913.82 1750.69 911.384 1748.58C908.948 1746.46 907.286 1743.59 906.659 1740.43C906.292 1738.21 906.041 1735.97 905.908 1733.72Z" fill="#00282E"/>
<path d="M1031.08 1749.01C1022.29 1749.27 1015.14 1742.46 1014.69 1733.41C1014.25 1724.6 1020.68 1716.77 1028.48 1716.6C1036.27 1716.42 1043.72 1724.32 1044.23 1733.25C1044.75 1742.18 1039.19 1748.82 1031.08 1749.01Z" fill="#00282E"/>
<path d="M1032.1 1210.12C1032.21 1211.72 1031.98 1213.32 1031.45 1214.83C1030.92 1216.35 1030.09 1217.74 1029.01 1218.92C1027.93 1220.1 1026.62 1221.06 1025.16 1221.73C1023.7 1222.39 1022.12 1222.76 1020.52 1222.81C1018.92 1222.91 1017.31 1222.68 1015.81 1222.13C1014.3 1221.58 1012.92 1220.72 1011.77 1219.61C1010.61 1218.49 1009.7 1217.15 1009.09 1215.67C1008.49 1214.18 1008.19 1212.58 1008.24 1210.98C1008.25 1207.74 1009.53 1204.63 1011.81 1202.33C1014.09 1200.03 1017.19 1198.71 1020.43 1198.68C1023.49 1198.65 1026.44 1199.84 1028.63 1201.98C1030.82 1204.13 1032.07 1207.05 1032.1 1210.12Z" fill="#00282E"/>
</g>
</g>
<defs>
<clipPath id="clip0">
<rect width="2210" height="2575" fill="white"/>
</clipPath>
<clipPath id="clip1">
<rect width="1226" height="2576" fill="white" transform="translate(492 -1)"/>
</clipPath>
</defs>
</svg>
