<?xml version="1.0" standalone="no"?>
<!DOCTYPE svg PUBLIC "-//W3C//DTD SVG 20010904//EN"
 "http://www.w3.org/TR/2001/REC-SVG-20010904/DTD/svg10.dtd">
<svg version="1.0" xmlns="http://www.w3.org/2000/svg"
 width="2575.000000pt" height="2575.000000pt" viewBox="0 0 2575.000000 2575.000000"
 preserveAspectRatio="xMidYMid meet">
<metadata>
Created by potrace 1.14, written by Peter Selinger 2001-2017
</metadata>
<g transform="translate(0.000000,2575.000000) scale(0.100000,-0.100000)"
fill="#000000" stroke="none">
<path d="M12549 22571 c-91 -58 -130 -117 -237 -354 -87 -190 -175 -418 -254
-652 -22 -66 -43 -129 -48 -140 -4 -11 -27 -78 -50 -150 -49 -153 -123 -306
-205 -425 -32 -47 -61 -87 -64 -90 -3 -3 -24 -27 -46 -55 -81 -103 -309 -321
-455 -437 -30 -23 -64 -51 -75 -61 -29 -27 -60 -31 -126 -17 -35 8 -82 10
-117 6 -123 -14 -411 -105 -589 -187 -24 -10 -62 -28 -85 -38 -24 -11 -83 -38
-133 -61 -185 -87 -347 -148 -435 -164 -36 -6 -313 -87 -460 -135 -164 -52
-264 -96 -522 -228 -575 -295 -1001 -574 -1227 -805 -377 -385 -448 -850 -216
-1413 35 -86 135 -283 159 -315 6 -8 17 -26 25 -40 48 -87 285 -398 404 -530
18 -19 61 -69 97 -110 36 -41 67 -77 70 -80 17 -17 174 -196 285 -325 95 -111
216 -235 331 -340 212 -194 280 -259 585 -559 157 -155 321 -315 365 -358 269
-260 472 -481 516 -563 49 -92 62 -179 49 -326 -1 -20 -18 -27 -80 -35 -72 -8
-128 -40 -155 -87 -21 -37 -46 -131 -60 -222 -15 -103 -121 -634 -137 -687 -6
-18 -12 -44 -15 -56 -13 -63 -56 -218 -96 -342 -17 -52 -31 -99 -33 -105 -2
-10 -8 -26 -28 -80 -7 -16 -12 -32 -13 -35 0 -3 -6 -18 -13 -35 -6 -16 -21
-55 -32 -85 -72 -191 -159 -376 -224 -475 -231 -355 -306 -526 -421 -970 -59
-231 -70 -274 -77 -315 -3 -14 -10 -54 -17 -90 -26 -142 -35 -238 -35 -392 0
-163 7 -178 101 -218 33 -14 93 -45 134 -70 41 -24 92 -52 112 -62 63 -31 69
-60 42 -208 -8 -47 -17 -131 -19 -188 -2 -57 -7 -112 -10 -122 -3 -10 -8 -28
-10 -41 -7 -35 -22 -81 -97 -289 -67 -186 -128 -323 -169 -382 -52 -72 -86
-184 -95 -311 -8 -103 -29 -145 -97 -195 -97 -72 -130 -119 -158 -222 -15 -55
-14 -48 -23 -90 -4 -19 -18 -67 -32 -106 -30 -89 -33 -108 -23 -157 9 -54 -4
-96 -46 -140 -19 -20 -35 -40 -35 -45 -2 -37 -16 -100 -37 -162 -32 -98 -36
-171 -14 -238 27 -78 51 -96 136 -100 100 -5 113 -18 120 -112 6 -77 13 -110
59 -264 28 -94 33 -119 45 -204 10 -70 6 -119 -14 -178 -31 -89 -18 -177 37
-245 41 -51 113 -65 167 -33 30 18 47 44 76 118 l15 39 24 -22 c13 -12 28 -38
34 -59 22 -75 62 -269 68 -327 10 -101 44 -152 120 -179 32 -11 51 -12 87 -3
26 6 49 8 52 5 5 -4 18 -72 55 -278 5 -30 19 -102 30 -160 11 -58 22 -118 24
-135 3 -16 14 -82 26 -145 11 -63 22 -126 24 -140 5 -33 27 -150 41 -220 2
-14 7 -41 10 -60 3 -19 7 -46 10 -60 3 -14 7 -41 9 -60 3 -19 14 -93 26 -165
11 -71 23 -148 25 -170 3 -22 7 -51 10 -65 28 -141 22 -212 -35 -423 -28 -104
-62 -221 -76 -260 -14 -40 -26 -77 -28 -82 -5 -31 -60 -127 -77 -136 -11 -5
-52 -18 -93 -29 -101 -25 -142 -44 -157 -71 -15 -29 -19 -175 -7 -234 7 -35
16 -49 38 -60 16 -8 35 -15 42 -15 37 0 87 -22 93 -41 4 -11 8 -69 10 -128 6
-178 25 -261 77 -338 53 -78 115 -104 190 -77 34 12 39 11 65 -9 15 -12 33
-27 38 -34 16 -20 78 -41 109 -37 16 1 52 17 79 34 55 34 79 34 127 -1 41 -31
90 -32 136 -3 83 50 78 49 142 20 69 -30 96 -32 152 -10 50 20 91 76 120 165
11 35 24 70 29 77 4 8 39 17 77 22 60 7 72 13 95 40 34 40 38 61 37 185 -1 55
2 110 6 122 8 26 43 39 116 42 114 5 157 30 161 96 3 60 -13 211 -27 243 -10
24 -25 38 -53 49 -22 9 -42 22 -45 29 -10 26 -8 306 2 316 12 12 246 26 272
16 25 -9 29 -26 35 -143 5 -105 12 -183 20 -225 2 -14 7 -42 9 -64 3 -21 8
-46 10 -55 3 -9 7 -34 11 -56 3 -21 21 -111 40 -200 52 -240 121 -448 220
-660 40 -86 75 -172 145 -352 50 -128 158 -303 246 -398 11 -11 32 -38 49 -60
76 -103 222 -227 332 -283 71 -36 193 -79 249 -87 22 -3 46 -8 54 -11 8 -3 66
-8 128 -11 221 -10 361 36 559 184 113 85 204 191 273 318 80 147 200 490 234
665 2 14 12 61 20 105 9 44 19 103 22 130 3 28 7 61 9 75 7 55 16 248 21 495
7 289 7 344 -1 460 -6 80 -9 110 -20 195 -19 156 -16 164 80 174 33 4 76 9 95
11 131 15 214 21 410 29 239 10 300 24 361 82 l26 24 19 -21 c21 -24 65 -48
97 -55 42 -9 86 7 143 52 l58 45 12 -23 c7 -13 14 -39 17 -58 23 -150 87 -212
194 -189 103 22 99 23 132 -10 70 -69 121 -75 209 -25 l51 29 69 -24 c47 -17
77 -22 97 -17 29 7 78 53 125 115 l25 34 33 -17 c72 -37 142 -23 178 38 16 27
19 52 20 188 0 145 4 172 22 174 111 10 166 37 180 87 12 44 5 304 -10 342
-34 88 -96 109 -272 91 -94 -10 -116 1 -149 72 -46 103 -55 125 -100 262 -84
248 -120 423 -151 723 -15 138 -20 169 -36 237 -25 99 -31 146 -35 256 -3 86
-2 95 20 120 26 30 32 50 40 128 5 60 23 88 68 110 56 26 90 21 123 -18 52
-59 124 -79 182 -48 69 39 71 125 4 347 -46 155 -50 197 -22 274 11 33 23 70
25 83 5 24 13 32 64 60 38 21 52 71 45 163 -16 225 -88 401 -226 550 -58 63
-88 112 -88 143 0 25 -45 135 -75 183 -33 51 -32 98 1 134 15 16 33 44 40 62
16 37 18 116 5 142 -14 25 -19 83 -10 108 12 34 2 53 -81 144 -99 109 -95 105
-145 135 -37 21 -85 76 -170 192 -24 33 -85 92 -152 145 -132 107 -348 348
-465 520 -57 85 -111 196 -148 312 -52 158 -85 239 -166 401 -74 149 -75 152
-61 185 8 19 24 42 35 53 37 32 37 90 2 191 -45 129 -152 345 -226 456 -39 59
-82 141 -110 209 -44 112 -81 190 -183 383 -53 101 -125 300 -135 375 -3 24
-8 46 -10 50 -3 4 -8 35 -11 67 -4 33 -9 62 -10 66 -2 3 -7 39 -11 80 -3 40
-8 76 -10 79 -1 3 -6 69 -10 145 -18 333 -1 598 57 903 34 185 25 225 -68 289
-29 20 -54 41 -54 47 -7 56 -22 467 -20 533 1 53 25 124 58 177 67 105 211
207 833 587 124 76 230 142 236 146 5 4 19 13 30 20 24 14 184 118 282 181 61
40 313 201 572 367 109 69 396 238 555 325 183 101 231 130 315 194 296 226
543 460 672 636 117 160 128 176 241 341 88 130 162 259 198 344 35 85 64 174
85 260 27 114 36 251 22 343 -32 210 -164 434 -507 857 -173 213 -170 211
-461 374 -69 39 -171 91 -228 116 -119 54 -240 116 -372 193 -201 116 -416
211 -760 337 -85 31 -168 63 -185 70 -16 8 -77 35 -135 60 -58 26 -125 56
-150 67 -84 38 -125 56 -200 88 -41 17 -187 87 -325 155 -167 83 -273 130
-320 141 -38 9 -98 30 -132 46 -54 26 -71 30 -120 26 -71 -6 -89 2 -129 55
-75 102 -215 348 -230 406 -2 9 -33 99 -67 201 -142 417 -252 869 -302 1237
-2 15 -6 51 -10 78 -16 115 -84 264 -151 332 -57 56 -107 64 -198 32 l-65 -23
-28 20 c-83 62 -128 67 -194 25z m57 -473 c-3 -49 -7 -92 -10 -96 -3 -6 -11
-73 -22 -202 -1 -19 -5 -75 -8 -125 -4 -49 -8 -115 -11 -145 -2 -30 -7 -104
-10 -165 -4 -60 -8 -123 -10 -140 -2 -16 -7 -66 -10 -110 -3 -44 -8 -102 -10
-130 -6 -66 -13 -160 -21 -270 -3 -49 -7 -110 -9 -135 -2 -25 -6 -101 -10
-170 -9 -190 -13 -236 -35 -350 -11 -58 -22 -116 -24 -130 -49 -274 -74 -340
-152 -409 -38 -33 -68 -48 -148 -73 -115 -35 -142 -51 -208 -119 -25 -27 -53
-49 -61 -49 -14 0 -345 262 -470 373 -106 93 -218 210 -215 223 3 11 125 140
487 512 191 197 347 406 450 602 88 169 132 286 212 567 41 146 87 260 192
476 102 211 114 218 103 65z m368 -48 c8 -36 19 -105 26 -155 6 -49 13 -101
15 -114 3 -13 7 -45 10 -70 6 -47 8 -57 46 -236 41 -196 133 -499 194 -640 7
-16 16 -41 20 -55 17 -57 161 -384 221 -500 35 -69 95 -176 133 -237 38 -60
77 -125 86 -142 l16 -32 -48 -47 c-27 -26 -131 -127 -231 -224 -132 -130 -188
-178 -206 -178 -13 0 -45 12 -71 27 -49 27 -55 28 -230 23 -113 -2 -189 34
-234 111 -27 46 -35 94 -33 199 2 176 14 332 47 595 25 205 37 339 50 575 5
92 9 153 20 325 3 44 7 123 10 175 12 236 25 422 31 455 5 27 15 122 18 176 1
27 13 63 30 92 l29 48 19 -53 c10 -29 25 -82 32 -118z m-242 -2762 c27 -10 93
-23 146 -28 98 -10 121 -21 123 -59 4 -84 32 -112 246 -247 186 -116 593 -382
603 -393 3 -3 32 -24 65 -46 95 -63 420 -300 535 -391 234 -182 365 -376 359
-531 -6 -133 -124 -304 -284 -411 -60 -39 -134 -87 -167 -107 -9 -5 -69 -44
-133 -85 -64 -41 -124 -80 -133 -85 -9 -6 -35 -22 -57 -37 -22 -14 -148 -94
-280 -178 -132 -84 -283 -181 -335 -215 -188 -123 -410 -214 -615 -250 -155
-28 -222 -35 -355 -37 -83 -1 -250 9 -280 17 -8 2 -37 6 -65 10 -138 16 -301
58 -381 96 -134 65 -441 349 -659 609 -122 146 -192 250 -290 425 -43 77 -89
158 -103 180 -67 107 -24 212 167 407 52 54 97 101 100 106 20 29 238 198 365
284 124 83 175 126 286 238 166 168 185 181 446 327 133 74 147 106 109 255
-7 28 -5 30 60 43 17 3 46 7 65 9 145 15 199 37 282 113 l59 54 36 -27 c19
-15 58 -35 85 -46z m-1737 -5383 c22 -2 81 -7 130 -10 202 -11 265 -15 370
-20 61 -3 144 -7 185 -10 41 -2 116 -7 165 -10 50 -3 110 -8 135 -10 25 -3 71
-7 103 -10 83 -7 142 -14 222 -25 77 -10 130 -17 190 -25 90 -10 261 -34 291
-39 18 -3 49 -8 149 -21 85 -11 115 -14 191 -20 92 -7 298 -61 320 -83 13 -12
14 -30 9 -91 -3 -42 -8 -94 -10 -116 -9 -114 -34 -246 -51 -273 -14 -21 -20
-22 -87 -17 -112 9 -259 24 -292 31 -83 16 -133 21 -247 23 -294 6 -342 11
-518 52 -69 16 -141 31 -160 33 -19 3 -48 7 -65 10 -46 8 -187 27 -220 30
-122 12 -194 17 -365 21 -201 6 -294 10 -415 20 -38 3 -104 7 -145 10 -41 3
-102 7 -135 10 -33 3 -96 8 -140 10 -85 6 -89 7 -203 25 -78 13 -94 26 -84 70
8 34 8 259 0 343 -3 37 -2 70 3 73 15 9 42 12 170 19 68 4 126 8 128 10 4 5
325 -4 376 -10z m-686 -719 c106 -35 230 -60 351 -71 36 -4 81 -8 100 -10 19
-2 76 -6 125 -10 50 -3 113 -8 140 -10 28 -3 109 -7 180 -10 363 -15 395 -17
531 -36 43 -6 90 -12 104 -14 14 -1 61 -10 105 -18 121 -24 343 -51 495 -62
36 -3 90 -7 120 -10 30 -3 89 -7 130 -10 41 -3 95 -8 120 -10 48 -5 189 -11
417 -20 169 -6 234 -13 249 -26 11 -9 10 -53 -2 -87 -12 -38 -19 -131 -17
-262 3 -330 12 -709 18 -770 8 -78 27 -224 41 -300 2 -14 8 -52 14 -85 14 -87
36 -185 50 -224 32 -85 222 -452 307 -591 33 -53 243 -463 243 -474 0 -2 -21
-4 -47 -5 -27 -1 -64 -4 -83 -6 -19 -2 -56 -7 -81 -10 -107 -14 -503 -114
-631 -160 -69 -25 -160 -68 -238 -113 -24 -15 -52 -28 -62 -29 -10 -2 -69 24
-131 56 -146 77 -262 116 -358 120 -25 1 -83 55 -244 226 -126 134 -175 182
-237 232 -37 29 -69 53 -72 53 -3 0 -25 13 -48 29 -55 37 -180 92 -278 122
-76 24 -223 32 -295 17 -167 -34 -317 -99 -450 -194 -141 -100 -186 -159 -399
-524 -51 -88 -125 -246 -156 -337 -20 -56 -38 -93 -46 -93 -7 0 -60 19 -116
41 -218 88 -557 192 -698 214 -25 4 -54 9 -65 11 -35 5 -166 14 -295 19 -151
7 -178 11 -184 33 -5 17 0 151 7 187 3 11 8 42 11 68 4 27 9 57 11 67 2 9 6
34 9 55 14 88 85 316 164 530 54 145 151 356 199 429 52 80 153 245 153 250 0
3 95 160 283 471 150 248 238 497 296 840 11 66 23 131 26 145 2 14 9 48 15
75 14 69 17 82 26 145 4 30 8 60 9 65 1 6 3 34 3 63 l2 52 37 0 c20 0 84 -15
142 -34z m1326 -2820 c144 -49 202 -92 410 -300 207 -207 231 -233 321 -347
125 -158 208 -303 281 -493 18 -49 41 -105 49 -125 29 -66 33 -75 63 -156 62
-168 108 -326 171 -595 41 -174 39 -161 47 -265 12 -164 7 -323 -17 -450 -12
-66 -22 -142 -22 -170 0 -70 -13 -115 -44 -150 -14 -16 -34 -39 -43 -51 -31
-40 -62 -46 -139 -29 -12 3 -39 23 -60 43 -48 50 -62 54 -125 40 -42 -10 -63
-23 -112 -71 -68 -66 -84 -68 -154 -21 -90 59 -155 37 -227 -76 -23 -36 -51
-75 -63 -88 l-21 -23 -28 20 c-15 11 -47 38 -72 60 -64 58 -123 85 -167 78
-20 -4 -61 -23 -92 -43 -70 -47 -98 -46 -151 3 -118 110 -230 111 -349 3 -25
-22 -47 -40 -50 -41 -3 0 -15 -2 -25 -4 -13 -2 -39 17 -81 60 -94 95 -122 104
-224 70 -26 -8 -55 -13 -64 -9 -19 7 -76 89 -82 119 -34 153 -105 540 -111
605 -22 256 -22 1045 1 1192 2 13 6 50 10 83 10 95 45 232 82 324 51 127 170
357 215 416 4 6 31 42 60 82 180 245 362 344 618 339 94 -2 129 -8 195 -30z
m2478 -565 c4 0 17 -22 29 -48 24 -57 73 -166 93 -208 8 -16 96 -194 195 -395
194 -391 259 -533 420 -925 56 -137 106 -259 111 -270 59 -140 157 -449 213
-670 21 -85 32 -133 62 -280 4 -21 7 -37 25 -140 6 -33 12 -71 15 -85 7 -36
43 -239 50 -279 3 -18 8 -43 10 -55 5 -27 5 -26 54 -316 46 -274 46 -275 54
-345 4 -27 8 -68 11 -90 3 -22 7 -78 10 -125 3 -47 7 -112 10 -145 2 -33 7
-112 11 -175 3 -63 7 -131 9 -150 2 -19 6 -73 10 -120 3 -47 8 -96 10 -110 3
-14 7 -52 10 -85 3 -33 10 -85 15 -115 5 -30 11 -71 14 -90 13 -87 19 -123 42
-235 30 -142 29 -138 44 -195 16 -61 79 -258 94 -295 19 -46 48 -128 53 -150
4 -20 0 -21 -209 -21 -281 0 -276 3 -362 -199 -67 -157 -160 -320 -211 -372
-20 -19 -58 -16 -84 8 -18 17 -21 27 -15 52 3 18 10 37 13 42 17 23 50 132 85
280 13 55 32 120 40 144 41 114 60 228 59 371 0 90 -12 381 -18 430 -2 19 -7
57 -10 85 -6 57 -32 227 -40 265 -3 14 -12 61 -19 105 -8 44 -24 130 -36 190
-11 61 -27 151 -36 200 -8 50 -18 113 -24 140 -5 28 -12 73 -15 100 -3 28 -8
63 -11 78 -3 16 -7 38 -9 50 -3 27 -34 215 -40 242 -154 786 -391 1576 -624
2078 -17 37 -44 95 -60 130 -16 34 -47 101 -69 149 -23 48 -81 192 -131 320
-217 562 -303 737 -482 979 -27 37 -49 73 -49 82 0 17 37 36 140 71 74 24 100
31 170 42 19 3 42 7 50 9 8 2 35 7 60 10 25 3 81 14 125 24 69 15 98 18 138
12z m-4469 -382 c142 -27 355 -104 387 -140 13 -14 15 -28 8 -71 -14 -83 -20
-139 -34 -283 -4 -44 -9 -93 -11 -110 -1 -16 -6 -72 -9 -124 -4 -52 -9 -103
-11 -115 -15 -76 -19 -427 -19 -1531 0 -1110 3 -1385 20 -1570 2 -27 7 -97 11
-155 3 -58 7 -121 9 -140 2 -19 6 -73 10 -120 3 -47 8 -105 10 -130 5 -50 12
-158 20 -295 3 -49 7 -130 10 -180 2 -49 7 -139 10 -200 3 -60 8 -137 10 -170
3 -33 7 -98 10 -145 3 -47 7 -112 10 -145 2 -33 7 -94 10 -135 3 -41 7 -102
10 -135 3 -33 7 -91 10 -130 3 -38 7 -88 10 -110 2 -22 7 -71 10 -110 4 -38 8
-86 10 -105 2 -19 6 -62 10 -95 3 -33 8 -78 10 -100 3 -22 7 -73 10 -114 5
-54 15 -93 39 -145 68 -144 90 -194 148 -346 73 -189 92 -251 118 -372 23
-108 25 -163 6 -196 -12 -23 -14 -22 -83 65 -96 120 -138 185 -173 269 -49
117 -53 129 -54 134 -4 19 -43 70 -55 73 -9 1 -33 -4 -54 -14 -74 -32 -467
-31 -487 1 -4 6 8 60 28 118 36 111 59 191 68 230 2 13 22 67 43 120 45 113
45 107 1 367 -17 105 -33 199 -35 210 -1 11 -6 43 -10 70 -4 28 -9 59 -11 70
-2 11 -9 50 -14 87 -5 36 -17 110 -26 165 -9 54 -17 109 -19 123 -2 14 -7 41
-10 60 -4 19 -8 46 -10 60 -5 29 -42 236 -48 265 -3 11 -7 36 -11 55 -3 19 -8
44 -10 55 -6 29 -64 344 -71 380 -9 54 -36 209 -40 235 -2 14 -11 66 -19 115
-17 102 -25 155 -32 204 -2 19 -6 46 -9 60 -7 41 -23 152 -30 201 -3 25 -10
72 -15 105 -5 33 -12 84 -15 114 -4 30 -8 62 -10 72 -2 10 -6 46 -10 81 -3 35
-7 74 -10 88 -2 14 -7 52 -10 85 -3 33 -8 74 -10 90 -6 43 -14 129 -20 215 -3
41 -7 89 -10 105 -2 17 -7 84 -10 150 -3 66 -8 154 -10 195 -6 93 -6 1181 0
1345 3 110 8 167 19 220 8 39 35 210 41 255 6 46 15 113 20 140 2 8 6 42 9 75
4 33 9 71 11 85 2 14 6 44 9 68 3 23 9 61 12 85 12 98 29 170 66 287 32 100
37 103 137 96 46 -4 107 -11 135 -17z m5055 -3968 c5 -14 21 -96 36 -181 14
-85 35 -202 46 -260 31 -161 38 -202 64 -370 21 -132 23 -151 31 -225 3 -33 8
-71 10 -85 6 -36 6 -323 -1 -400 -8 -98 -34 -206 -53 -223 -11 -10 -47 -18
-92 -22 -41 -4 -115 -14 -165 -22 -49 -8 -96 -15 -103 -15 -25 -2 -70 -55 -81
-94 -17 -65 -27 -188 -22 -275 2 -37 34 -66 97 -86 67 -21 82 -45 59 -98 -10
-25 -21 -35 -37 -36 -13 0 -75 -2 -138 -4 -63 -1 -144 -5 -180 -9 -244 -23
-427 -27 -444 -11 -7 8 -19 51 -26 97 -26 177 -152 697 -208 860 -62 180 -194
442 -356 708 -82 133 -168 213 -356 329 -84 52 -160 106 -169 120 -24 37 -25
164 -1 210 23 45 55 75 100 94 l35 14 77 -73 c55 -52 86 -75 105 -76 58 -3 84
1 111 21 15 10 59 29 97 41 39 13 87 32 107 43 42 23 27 29 149 -65 41 -31 91
-79 111 -107 44 -59 88 -74 142 -49 59 28 164 108 210 159 42 47 48 50 78 43
66 -16 123 0 182 51 16 13 33 22 38 19 4 -3 21 -33 37 -68 30 -68 58 -99 123
-144 103 -69 163 -76 213 -27 24 24 29 44 39 135 7 59 23 112 37 120 6 4 28 3
49 -2 28 -7 41 -18 49 -37z m-2664 13 c50 -23 63 -43 74 -114 18 -115 20 -143
10 -162 -5 -10 -58 -40 -116 -68 -161 -76 -250 -136 -349 -235 -54 -54 -121
-141 -147 -190 -8 -16 -39 -57 -67 -90 -126 -148 -222 -375 -255 -605 -11 -71
-12 -82 -19 -145 -4 -33 -9 -69 -11 -80 -6 -32 -21 -161 -31 -275 -4 -41 -8
-91 -10 -110 -2 -19 -6 -140 -9 -269 -3 -129 -7 -236 -9 -239 -12 -11 -86 -20
-183 -21 -193 -3 -247 -22 -283 -96 -24 -49 -27 -106 -20 -362 2 -108 -1 -123
-29 -123 -27 0 -34 13 -79 155 -93 295 -138 523 -167 840 -3 33 -8 85 -11 115
-3 30 -7 84 -10 120 -2 36 -6 90 -8 120 -2 30 -7 105 -11 165 -3 61 -8 130
-10 155 -3 25 -7 101 -11 170 -3 69 -7 141 -9 160 -2 19 -7 98 -10 175 -4 77
-8 163 -10 190 -2 28 -7 104 -10 170 -4 66 -9 123 -11 127 -8 13 -14 208 -7
208 5 1 55 2 113 3 l105 2 50 -87 c66 -116 83 -132 139 -132 72 -1 115 53 126
160 8 70 33 110 93 150 54 35 91 45 127 33 54 -19 80 -86 85 -221 2 -51 8
-105 14 -120 25 -66 115 -81 196 -33 90 52 104 116 51 229 -26 54 -26 57 -10
88 9 17 19 63 23 102 6 69 7 71 31 67 14 -1 53 -14 87 -28 56 -22 64 -29 73
-61 5 -21 10 -44 10 -52 0 -37 78 -134 119 -147 48 -16 98 -3 125 34 14 19 20
47 22 107 2 44 9 95 16 111 41 103 137 150 223 109z m170 -976 c3 -40 8 -91
10 -113 2 -22 7 -92 10 -155 4 -63 8 -135 10 -160 2 -25 6 -88 10 -140 9 -151
14 -227 31 -475 3 -49 6 -92 6 -95 4 -50 -4 -67 -42 -89 -83 -46 -116 -111
-124 -240 -2 -43 -9 -79 -17 -87 -9 -8 -49 -15 -111 -19 -88 -4 -124 -8 -196
-20 -37 -6 -39 4 -57 265 -6 85 -6 464 0 515 17 158 23 201 30 235 3 14 8 40
11 59 12 72 63 231 94 294 44 90 111 161 219 235 51 34 96 62 101 62 4 0 11
-33 15 -72z m464 -50 c51 -51 91 -117 155 -256 75 -166 131 -308 175 -447 60
-193 97 -358 125 -560 4 -22 11 -73 17 -113 8 -50 9 -76 2 -83 -6 -6 -35 -13
-64 -15 -30 -3 -80 -12 -111 -21 -76 -20 -89 -11 -133 91 -38 89 -90 171 -144
229 -20 21 -39 44 -42 50 -7 12 -13 93 -25 322 -3 66 -8 140 -10 165 -8 88
-15 646 -8 663 9 24 15 22 63 -25z m2691 -1178 c17 -9 19 -19 15 -71 -6 -71
-12 -113 -25 -154 -5 -16 -14 -49 -20 -72 -6 -24 -14 -43 -19 -43 -4 0 -18 24
-31 53 -31 69 -36 227 -7 270 19 29 53 35 87 17z m232 -13 c13 -20 14 -84 4
-166 -8 -65 -36 -183 -46 -194 -4 -5 -12 18 -18 50 -17 86 -20 109 -27 215 -6
86 -5 97 11 106 21 12 66 5 76 -11z m240 -29 c12 -18 2 -192 -17 -303 -8 -48
-11 -51 -29 -36 -13 11 -21 49 -32 141 -2 19 -6 49 -9 65 -15 107 -16 127 -6
139 14 17 81 12 93 -6z m246 -20 c18 -18 16 -232 -1 -247 -11 -8 -16 -5 -25
14 -10 22 -62 214 -62 229 0 5 30 12 61 15 8 0 20 -4 27 -11z m-2966 -466 c37
-4 50 -46 55 -179 13 -304 6 -564 -23 -888 -12 -142 -20 -198 -46 -315 -23
-109 -129 -436 -154 -477 -80 -131 -94 -137 -276 -129 -290 12 -355 44 -465
227 -136 225 -252 503 -288 687 -1 9 -8 35 -13 57 -19 71 -57 261 -68 345 -3
25 -7 52 -9 60 -3 19 -13 85 -19 130 -3 19 -7 64 -11 100 -3 36 -8 81 -10 100
-11 93 -15 176 -8 187 18 26 294 44 326 21 10 -8 21 -36 27 -72 31 -195 104
-293 230 -312 25 -4 72 -17 105 -29 101 -37 172 -17 272 77 90 86 129 173 138
310 4 45 10 87 15 93 7 8 161 13 222 7z m-3336 -963 c13 -11 15 -29 10 -106
-6 -93 -8 -108 -28 -193 -23 -99 -29 -111 -51 -108 -14 2 -29 18 -41 42 -17
34 -20 63 -20 205 -1 163 -1 165 22 177 26 13 83 4 108 -17z m-269 7 c15 -15
-87 -356 -106 -356 -5 0 -15 8 -23 18 -19 22 -18 312 1 336 9 11 28 14 67 12
30 -2 58 -6 61 -10z m740 -68 c44 -85 62 -175 51 -242 -16 -96 -39 -126 -67
-93 -15 19 -57 187 -72 291 -12 84 -12 89 7 103 31 22 46 12 81 -59z m-240 40
c5 -7 9 -83 8 -171 -1 -148 -3 -159 -23 -180 -19 -19 -24 -20 -36 -7 -35 36
-62 301 -36 350 12 23 71 28 87 8z"/>
<path d="M11951 13735 c-16 -14 -34 -40 -40 -58 -39 -120 104 -206 194 -117
26 26 30 38 30 85 0 49 -4 59 -32 85 -43 40 -107 42 -152 5z"/>
<path d="M11345 9793 c-181 -41 -217 -205 -62 -285 61 -30 135 -33 219 -8 79
24 114 43 129 72 37 70 2 147 -97 209 -40 24 -113 29 -189 12z"/>
<path d="M11440 9224 c-81 -35 -119 -104 -124 -227 -2 -44 2 -114 9 -156 16
-86 24 -135 30 -171 60 -353 64 -368 119 -394 54 -26 122 4 142 63 10 32 0
144 -25 271 -7 30 -14 69 -17 85 -3 17 -14 81 -25 143 -11 62 -18 121 -14 131
3 11 29 27 64 40 71 26 90 46 96 100 3 33 -1 47 -21 70 -45 54 -161 77 -234
45z"/>
<path d="M12082 8580 c-89 -20 -142 -143 -98 -229 52 -100 192 -120 249 -36
77 113 -26 292 -151 265z"/>
<path d="M10955 8561 c-50 -30 -68 -67 -71 -147 -2 -57 2 -78 19 -109 58 -102
195 -98 245 7 25 54 22 114 -10 176 -43 83 -118 113 -183 73z"/>
<path d="M12315 8043 c-18 -10 -70 -19 -137 -23 -120 -8 -151 -21 -173 -73
-23 -54 -2 -107 53 -133 43 -20 222 -23 290 -5 50 14 121 79 123 114 5 60 -1
81 -27 108 -32 34 -80 38 -129 12z"/>
<path d="M11145 7985 c-39 -6 -114 -9 -167 -8 -94 4 -98 3 -127 -24 -46 -42
-48 -107 -6 -149 38 -39 79 -48 205 -48 141 0 203 18 236 70 27 41 23 99 -11
134 -35 36 -45 38 -130 25z"/>
</g>
</svg>
